<svg width="42" height="33" viewBox="0 0 42 33" fill="none" xmlns="http://www.w3.org/2000/svg">
<path d="M20.5134 23.0955C20.0836 22.0774 19.4599 21.1527 18.677 20.3727C17.8965 19.5906 16.9719 18.9669 15.9542 18.5363C15.9451 18.5317 15.936 18.5295 15.9269 18.5249C17.3464 17.4996 18.2691 15.8295 18.2691 13.9452C18.2691 10.8238 15.7401 8.29467 12.6186 8.29467C9.4971 8.29467 6.96802 10.8238 6.96802 13.9452C6.96802 15.8295 7.8908 17.4996 9.31027 18.5272C9.30116 18.5317 9.29204 18.534 9.28293 18.5386C8.26218 18.9692 7.34625 19.5867 6.56018 20.375C5.77801 21.1555 5.15439 22.0801 4.72375 23.0978C4.30725 24.082 4.18364 24.6817 4.12332 25.2886C4.09316 25.5921 4.28202 25.9663 4.28202 25.9663L4.72375 26.2534H5.78323C5.78323 26.2534 5.78323 23.4856 7.78371 21.5985C9.07559 20.3067 10.7913 19.5958 12.6186 19.5958C14.4459 19.5958 15.5999 19.7972 17.4534 21.5985C19.307 23.3998 19.4539 26.2534 19.4539 26.2534L20.8957 26.2458L21.0551 26.2443C21.0551 26.2443 21.1764 26.0598 21.1443 25.7633C21.077 25.1431 20.909 24.0326 20.5134 23.0955ZM12.6186 17.8642C11.5728 17.8642 10.5885 17.4563 9.84799 16.7158C9.10749 15.9753 8.69965 14.991 8.69965 13.9452C8.69965 12.8994 9.10749 11.9151 9.84799 11.1746C10.5885 10.4341 11.5728 10.0263 12.6186 10.0263C13.6644 10.0263 14.6487 10.4341 15.3892 11.1746C16.1297 11.9151 16.5375 12.8994 16.5375 13.9452C16.5375 14.991 16.1297 15.9753 15.3892 16.7158C14.6487 17.4563 13.6644 17.8642 12.6186 17.8642Z" fill="#408AC9"/>
<path fill-rule="evenodd" clip-rule="evenodd" d="M4.37357 25.8C4.37357 25.8 4.30083 25.6134 4.33099 25.3099C4.39131 24.703 4.30733 24.082 4.72383 23.0978C5.15446 22.0802 5.77809 21.1556 6.56026 20.375C7.28824 19.6449 8.1276 19.0614 9.05844 18.6371C9.13272 18.6033 9.20757 18.5704 9.28301 18.5386C9.28756 18.5363 9.29212 18.5346 9.29668 18.5329C9.30123 18.5312 9.30579 18.5295 9.31035 18.5272C9.29479 18.5159 9.27929 18.5046 9.26385 18.4932L9.25821 18.489C9.20205 18.4474 9.14669 18.4047 9.09215 18.3611C7.79704 17.3247 6.9681 15.7312 6.9681 13.9452C6.9681 10.8238 9.49718 8.29469 12.6187 8.29469C15.7401 8.29469 18.2692 10.8238 18.2692 13.9452C18.2692 15.7311 17.4403 17.3245 16.1453 18.359C16.0907 18.4026 16.0353 18.4453 15.979 18.4869L15.9735 18.4909C15.9581 18.5024 15.9425 18.5137 15.927 18.5249C15.9315 18.5272 15.9361 18.5289 15.9406 18.5306C15.9452 18.5323 15.9497 18.534 15.9543 18.5363C16.0296 18.5682 16.1045 18.6011 16.1787 18.6351C17.108 19.0602 17.9543 19.6485 18.6771 20.3728C19.46 21.1527 20.0837 22.0774 20.5135 23.0955C20.9091 24.0326 21.0771 25.1431 21.1443 25.7633C21.1765 26.0598 21.0522 26.2458 21.0522 26.2458H20.8958L19.454 26.2534C19.454 26.2534 19.3071 23.3999 17.4535 21.5986C15.6 19.7973 14.446 19.5958 12.6187 19.5958C10.7913 19.5958 9.07567 20.3067 7.78379 21.5986C5.78331 23.4856 5.78331 26.2534 5.78331 26.2534L4.37357 25.8ZM6.0217 26.2536V26.4918L4.21063 26.0384L4.15145 25.8866L4.37357 25.8C4.15145 25.8866 4.15145 25.8866 4.15145 25.8866L4.15093 25.8852L4.15031 25.8836L4.14879 25.8795L4.14472 25.8679C4.1416 25.8587 4.13771 25.8465 4.13344 25.8315C4.12489 25.8016 4.11473 25.7603 4.10596 25.7088C4.0884 25.6058 4.07633 25.4617 4.09376 25.2863C4.15502 24.6699 4.07409 24.0214 4.50428 23.0049C4.94687 21.959 5.58779 21.0087 6.39165 20.2065C7.11108 19.485 7.93675 18.9025 8.84999 18.4711C7.55429 17.3902 6.7297 15.7634 6.7297 13.9452C6.7297 10.6921 9.36551 8.05629 12.6187 8.05629C15.8718 8.05629 18.5076 10.6921 18.5076 13.9452C18.5076 15.7633 17.6831 17.3902 16.3873 18.4693C17.2994 18.9017 18.1312 19.4883 18.8456 20.2041C19.6502 21.0058 20.2913 21.9563 20.7331 23.0028C21.1426 23.9727 21.3134 25.1111 21.3813 25.7376C21.4015 25.9239 21.416 29.9729 21.3813 30.0823C21.3641 30.1369 21.3451 30.1806 21.3294 30.2122C21.3216 30.228 21.3145 30.2409 21.3089 30.2506L21.3015 30.263L21.2987 30.2674L21.2975 30.2692L21.2968 30.2704C21.2968 30.2704 21.0701 26.5401 21.0522 26.2458L21.2968 30.2704L21.2267 30.3769L20.9404 30.3796L19.2699 30.3884L19.2159 26.2659L19.2156 26.2598L19.2141 26.238C19.2127 26.2183 19.2104 26.1885 19.2067 26.1495C19.1994 26.0716 19.1869 25.9571 19.1661 25.8135C19.1246 25.5262 19.0503 25.124 18.9196 24.667C18.6573 23.7497 18.1728 22.63 17.2874 21.7695C16.3747 20.8826 15.6505 20.4055 14.9439 20.1454C14.2363 19.885 13.5258 19.8342 12.6187 19.8342C10.8546 19.8342 9.19954 20.52 7.95236 21.7671L7.94744 21.7721C6.9896 22.6756 6.5065 23.7942 6.26355 24.6957C6.14232 25.1455 6.08177 25.538 6.05158 25.8171C6.03649 25.9566 6.02902 26.0674 6.02532 26.1425C6.02347 26.1801 6.02257 26.2087 6.02213 26.2275L6.02175 26.2482L6.0217 26.2536ZM10.0166 16.5473C10.7125 17.2431 11.6361 17.6258 12.6187 17.6258C13.6012 17.6258 14.5248 17.2431 15.2207 16.5473C15.9165 15.8514 16.2992 14.9278 16.2992 13.9452C16.2992 12.9627 15.9165 12.0391 15.2207 11.3432C14.5248 10.6474 13.6012 10.2647 12.6187 10.2647C11.6361 10.2647 10.7125 10.6474 10.0166 11.3432C9.3208 12.0391 8.93812 12.9627 8.93812 13.9452C8.93812 14.9278 9.3208 15.8514 10.0166 16.5473ZM9.84806 16.7158C10.5886 17.4563 11.5728 17.8642 12.6187 17.8642C13.6645 17.8642 14.6488 17.4563 15.3892 16.7158C16.1297 15.9753 16.5376 14.9911 16.5376 13.9452C16.5376 12.8994 16.1297 11.9151 15.3892 11.1746C14.6488 10.4342 13.6645 10.0263 12.6187 10.0263C11.5728 10.0263 10.5886 10.4342 9.84806 11.1746C9.10756 11.9151 8.69972 12.8994 8.69972 13.9452C8.69972 14.9911 9.10756 15.9753 9.84806 16.7158Z" fill="#408AC9"/>
<circle cx="17.1408" cy="16.3683" r="15.25" stroke="#408AC9" stroke-width="2"/>
<rect x="24.3947" y="15.1824" width="16" height="16" rx="8" fill="white"/>
<path d="M28.7947 23.1824L31.1947 25.5824L35.9947 20.7824" stroke="#7CC076" stroke-width="2.5" stroke-linecap="round" stroke-linejoin="round"/>
<rect x="24.3947" y="15.1824" width="16" height="16" rx="8" stroke="#7CC076" stroke-width="2"/>
</svg>
