<svg width="36" height="38" viewBox="0 0 36 38" fill="none" xmlns="http://www.w3.org/2000/svg">
<circle cx="17.1253" cy="21.6494" r="15.25" stroke="#C4CDDF" stroke-width="2"/>
<g clip-path="url(#clip0)">
<path d="M11.3094 14.1065L12.2351 13.6133C13.1042 13.1512 14.1748 13.448 14.7397 14.306L15.8617 16.0158C16.3502 16.7602 16.3339 17.7438 15.8192 18.4473L14.388 20.4048C14.6729 21.3685 15.1798 22.2757 15.9067 23.1269C16.6004 23.9522 17.4526 24.6298 18.413 25.1198L20.3649 24.0471C21.1055 23.6414 22.0184 23.7876 22.63 24.4096L24.0574 25.8581C24.7696 26.5816 24.8763 27.7382 24.3067 28.5649L23.696 29.451C23.0882 30.3327 22.0752 30.7975 21.0372 30.6693C18.586 30.3681 16.0628 28.6085 13.4666 25.3908C10.8667 22.1681 9.62598 19.2567 9.74597 16.6601C9.79622 15.5675 10.3904 14.5957 11.3094 14.1065Z" fill="#408AC9"/>
<path d="M27.4287 13.8112C27.2312 13.8112 27.0382 13.8696 26.874 13.9791L22.0949 17.1652V14.8112C22.0949 14.2589 21.6472 13.8112 21.0949 13.8112C20.44 13.8112 19.8118 13.551 19.3487 13.0878C18.8855 12.6247 18.6253 11.9966 18.6253 11.3416V4.40241C18.6253 3.74743 18.8855 3.11928 19.3487 2.65614C19.8118 2.193 20.44 1.93282 21.0949 1.93282H31.5037C32.1587 1.93282 32.7868 2.193 33.25 2.65614C33.7131 3.11928 33.9733 3.74743 33.9733 4.40241V11.3416C33.9733 11.9966 33.7131 12.6247 33.25 13.0878C32.7868 13.551 32.1587 13.8112 31.5037 13.8112H27.4287Z" fill="white" stroke="#7CC076" stroke-width="2" stroke-linecap="round" stroke-linejoin="round"/>
<circle cx="22.6987" cy="7.89098" r="1.16229" fill="#7CC076"/>
<circle cx="26.2993" cy="7.89098" r="1.16229" fill="#7CC076"/>
<circle cx="29.8999" cy="7.89098" r="1.16229" fill="#7CC076"/>
</g>
<defs>
<clipPath id="clip0">
<rect width="29" height="33" fill="white" transform="translate(6.79135 0.649368)"/>
</clipPath>
</defs>
</svg>
