<svg width="8" height="11" viewBox="0 0 8 11" fill="none" xmlns="http://www.w3.org/2000/svg">
<path d="M1.184 10.4377V7.97374H0.096V7.07774L1.184 6.99774V6.11774H0.096V5.22174L1.184 5.14174V0.261744H3.504C4.00533 0.261744 4.47467 0.32041 4.912 0.437744C5.34933 0.544411 5.728 0.715077 6.048 0.949743C6.37867 1.17374 6.63467 1.47241 6.816 1.84574C7.008 2.20841 7.104 2.64574 7.104 3.15774C7.104 3.68041 7.008 4.12841 6.816 4.50174C6.624 4.87508 6.36267 5.18441 6.032 5.42974C5.70133 5.66441 5.31733 5.84041 4.88 5.95774C4.45333 6.06441 3.99467 6.11774 3.504 6.11774H2.928V6.98174H6.112V7.97374H2.928V10.4377H1.184ZM2.928 5.12574H3.392C4.02133 5.12574 4.50667 4.96574 4.848 4.64574C5.2 4.32574 5.376 3.86174 5.376 3.25374C5.376 2.60308 5.2 2.13908 4.848 1.86174C4.50667 1.58441 4.02133 1.44574 3.392 1.44574H2.928V5.12574Z" fill="#4A80AA"/>
</svg>
