<svg width="41" height="34" viewBox="0 0 41 34" fill="none" xmlns="http://www.w3.org/2000/svg">
<path d="M20.0395 23.6266C19.6096 22.6085 18.9859 21.6837 18.203 20.9038C17.4225 20.1217 16.4979 19.498 15.4803 19.0674C15.4712 19.0628 15.462 19.0606 15.4529 19.056C16.8724 18.0307 17.7952 16.3606 17.7952 14.4763C17.7952 11.3548 15.2661 8.82576 12.1446 8.82576C9.02315 8.82576 6.49407 11.3548 6.49407 14.4763C6.49407 16.3606 7.41684 18.0307 8.83632 19.0583C8.8272 19.0628 8.81809 19.0651 8.80898 19.0697C7.78823 19.5003 6.87229 20.1178 6.08623 20.9061C5.30406 21.6866 4.68043 22.6112 4.2498 23.6289C3.8333 24.6131 3.70969 25.2128 3.64937 25.8197C3.6192 26.1232 3.80806 26.4974 3.80806 26.4974L4.2498 26.7845H5.30928C5.30928 26.7845 5.30927 24.0167 7.30975 22.1296C8.60164 20.8378 10.3173 20.1269 12.1446 20.1269C13.9719 20.1269 15.1259 20.3283 16.9795 22.1296C18.8331 23.9309 18.98 26.7845 18.98 26.7845L20.4218 26.7769L20.5811 26.7754C20.5811 26.7754 20.7025 26.5909 20.6703 26.2944C20.6031 25.6742 20.4351 24.5637 20.0395 23.6266ZM12.1446 18.3953C11.0988 18.3953 10.1145 17.9874 9.37403 17.2469C8.63354 16.5064 8.22569 15.5221 8.22569 14.4763C8.22569 13.4305 8.63354 12.4462 9.37403 11.7057C10.1145 10.9652 11.0988 10.5574 12.1446 10.5574C13.1904 10.5574 14.1747 10.9652 14.9152 11.7057C15.6557 12.4462 16.0636 13.4305 16.0636 14.4763C16.0636 15.5221 15.6557 16.5064 14.9152 17.2469C14.1747 17.9874 13.1904 18.3953 12.1446 18.3953Z" fill="#C4CDDF"/>
<path fill-rule="evenodd" clip-rule="evenodd" d="M3.89959 26.3311C3.89959 26.3311 3.82684 26.1445 3.85701 25.841C3.91733 25.234 3.83334 24.6131 4.24984 23.6289C4.68048 22.6112 5.3041 21.6866 6.08627 20.9061C6.81425 20.176 7.65361 19.5925 8.58446 19.1682C8.65873 19.1344 8.73359 19.1015 8.80902 19.0697C8.81358 19.0674 8.81814 19.0657 8.82269 19.064C8.82725 19.0623 8.83181 19.0606 8.83636 19.0583C8.8208 19.047 8.8053 19.0357 8.78986 19.0243L8.78423 19.0201C8.72806 18.9785 8.6727 18.9358 8.61816 18.8922C7.32305 17.8557 6.49412 16.2622 6.49412 14.4763C6.49412 11.3549 9.02319 8.82578 12.1447 8.82578C15.2661 8.82578 17.7952 11.3549 17.7952 14.4763C17.7952 16.2622 16.9664 17.8556 15.6713 18.8901C15.6167 18.9337 15.5613 18.9763 15.5051 19.018L15.4995 19.022C15.4841 19.0334 15.4686 19.0448 15.453 19.056C15.4575 19.0583 15.4621 19.06 15.4667 19.0617C15.4712 19.0634 15.4758 19.0651 15.4803 19.0674C15.5557 19.0993 15.6305 19.1322 15.7048 19.1662C16.634 19.5912 17.4803 20.1796 18.2031 20.9038C18.986 21.6838 19.6097 22.6085 20.0395 23.6266C20.4351 24.5637 20.6031 25.6742 20.6704 26.2944C20.7025 26.5909 20.5782 26.7769 20.5782 26.7769H20.4218L18.98 26.7845C18.98 26.7845 18.8331 23.931 16.9795 22.1297C15.126 20.3284 13.972 20.1269 12.1447 20.1269C10.3174 20.1269 8.60168 20.8378 7.3098 22.1297C5.30932 24.0167 5.30932 26.7845 5.30932 26.7845L3.89959 26.3311ZM5.54772 26.7847V27.0229L3.73665 26.5695L3.67747 26.4177L3.89959 26.3311C3.67747 26.4177 3.67747 26.4177 3.67747 26.4177L3.67695 26.4163L3.67633 26.4147L3.67481 26.4106L3.67074 26.399C3.66761 26.3898 3.66373 26.3776 3.65945 26.3626C3.6509 26.3327 3.64075 26.2914 3.63198 26.2399C3.61442 26.1369 3.60234 25.9928 3.61978 25.8174C3.68104 25.201 3.60011 24.5525 4.03029 23.536C4.47289 22.4901 5.11381 21.5398 5.91767 20.7376C6.63709 20.0161 7.46277 19.4336 8.37601 19.0021C7.08031 17.9213 6.25572 16.2945 6.25572 14.4763C6.25572 11.2232 8.89153 8.58738 12.1447 8.58738C15.3978 8.58738 18.0336 11.2232 18.0336 14.4763C18.0336 16.2944 17.2091 17.9212 15.9133 19.0004C16.8254 19.4328 17.6572 20.0194 18.3716 20.7352C19.1763 21.5369 19.8173 22.4874 20.2591 23.5339C20.6686 24.5037 20.8394 25.6421 20.9074 26.2687C20.9276 26.455 20.942 30.504 20.9074 30.6134C20.8901 30.668 20.8711 30.7117 20.8554 30.7432C20.8476 30.7591 20.8405 30.7719 20.8349 30.7817L20.8275 30.7941L20.8247 30.7985L20.8236 30.8003L20.8228 30.8015C20.8228 30.8015 20.5961 27.0712 20.5782 26.7769L20.8228 30.8015L20.7528 30.908L20.4664 30.9107L18.7959 30.9195L18.7419 26.7969L18.7416 26.7909L18.7401 26.7691C18.7387 26.7494 18.7364 26.7196 18.7327 26.6806C18.7254 26.6027 18.7129 26.4881 18.6922 26.3446C18.6506 26.0573 18.5764 25.6551 18.4457 25.1981C18.1833 24.2807 17.6988 23.1611 16.8134 22.3006C15.9007 21.4137 15.1765 20.9366 14.4699 20.6765C13.7623 20.4161 13.0518 20.3653 12.1447 20.3653C10.3806 20.3653 8.72556 21.051 7.47838 22.2982L7.47346 22.3031C6.51562 23.2067 6.03252 24.3253 5.78957 25.2268C5.66834 25.6766 5.60779 26.0691 5.57759 26.3482C5.56251 26.4877 5.55504 26.5985 5.55134 26.6736C5.54949 26.7112 5.54858 26.7398 5.54814 26.7586L5.54777 26.7793L5.54772 26.7847ZM9.54265 17.0784C10.2385 17.7742 11.1622 18.1569 12.1447 18.1569C13.1272 18.1569 14.0509 17.7742 14.7467 17.0784C15.4425 16.3825 15.8252 15.4588 15.8252 14.4763C15.8252 13.4938 15.4425 12.5701 14.7467 11.8743C14.0509 11.1785 13.1272 10.7958 12.1447 10.7958C11.1622 10.7958 10.2385 11.1785 9.54265 11.8743C8.84682 12.5701 8.46414 13.4938 8.46414 14.4763C8.46414 15.4588 8.84682 16.3825 9.54265 17.0784ZM9.37408 17.2469C10.1146 17.9874 11.0989 18.3953 12.1447 18.3953C13.1905 18.3953 14.1748 17.9874 14.9153 17.2469C15.6558 16.5064 16.0636 15.5221 16.0636 14.4763C16.0636 13.4305 15.6558 12.4462 14.9153 11.7057C14.1748 10.9652 13.1905 10.5574 12.1447 10.5574C11.0989 10.5574 10.1146 10.9652 9.37408 11.7057C8.63358 12.4462 8.22574 13.4305 8.22574 14.4763C8.22574 15.5221 8.63358 16.5064 9.37408 17.2469Z" fill="#C4CDDF"/>
<circle cx="16.6668" cy="16.8994" r="15.25" stroke="#C4CDDF" stroke-width="2"/>
<rect x="23.9208" y="15.7135" width="16" height="16" rx="8" fill="white"/>
<path fill-rule="evenodd" clip-rule="evenodd" d="M28.1035 23.7135C28.1035 23.1425 28.4918 22.6796 28.9709 22.6796L34.8706 22.6796C35.3497 22.6796 35.738 23.1425 35.738 23.7135C35.738 24.2845 35.3497 24.7474 34.8706 24.7474L28.9709 24.7474C28.4918 24.7474 28.1035 24.2845 28.1035 23.7135Z" fill="#7CC076"/>
<path fill-rule="evenodd" clip-rule="evenodd" d="M31.9195 19.8962C32.4905 19.8962 32.9534 20.2845 32.9534 20.7636L32.9534 26.6633C32.9534 27.1424 32.4905 27.5307 31.9195 27.5307C31.3485 27.5307 30.8856 27.1424 30.8856 26.6633L30.8856 20.7636C30.8856 20.2845 31.3485 19.8962 31.9195 19.8962Z" fill="#7CC076"/>
<rect x="23.9208" y="15.7135" width="16" height="16" rx="8" stroke="#7CC076" stroke-width="2"/>
</svg>
