<svg width="14" height="16" viewBox="0 0 14 16" fill="none" xmlns="http://www.w3.org/2000/svg">
<path d="M9.77739 12.7496L10.3301 13.2566L10.331 13.2557L9.77739 12.7496ZM7.9701 14.4148L7.51002 13.8225L7.51 13.8225L7.9701 14.4148ZM3.72501 12.7496L3.17142 13.2557L3.17218 13.2565L3.72501 12.7496ZM5.53158 14.4148L5.07138 15.007L5.07187 15.0074L5.53158 14.4148ZM4.98343 4.70559L5.51376 5.23592H5.51376L4.98343 4.70559ZM4.98343 8.24113L5.51376 7.71079H5.51376L4.98343 8.24113ZM8.51896 8.24113L7.98863 7.71079H7.98863L8.51896 8.24113ZM8.51896 4.70559L7.98863 5.23592H7.98863L8.51896 4.70559ZM9.22465 12.2427C8.69843 12.8165 8.12486 13.3449 7.51002 13.8225L8.43018 15.0071C9.11147 14.4779 9.74703 13.8924 10.3301 13.2566L9.22465 12.2427ZM11.7137 6.55303C11.7137 8.92389 10.4708 10.8793 9.2238 12.2436L10.331 13.2557C11.696 11.7623 13.2137 9.45908 13.2137 6.55303H11.7137ZM6.7512 1.59055C9.49262 1.59055 11.7137 3.73414 11.7137 6.55303H13.2137C13.2137 2.88968 10.3049 0.0905457 6.7512 0.0905457V1.59055ZM1.78871 6.55303C1.78871 3.73414 4.00977 1.59055 6.7512 1.59055V0.0905457C3.19746 0.0905457 0.288712 2.88968 0.288712 6.55303H1.78871ZM4.2786 12.2436C3.03156 10.8793 1.78871 8.92388 1.78871 6.55303H0.288712C0.288712 9.45908 1.80642 11.7623 3.17142 13.2557L4.2786 12.2436ZM5.99178 13.8226C5.37717 13.345 4.80384 12.8166 4.27784 12.2428L3.17218 13.2565C3.75503 13.8922 4.39034 14.4778 5.07138 15.007L5.99178 13.8226ZM7.51 13.8225C7.07968 14.1568 6.86757 14.209 6.74636 14.2082C6.62245 14.2073 6.41393 14.1501 5.99129 13.8222L5.07187 15.0074C5.56941 15.3934 6.10705 15.7037 6.7358 15.7081C7.36725 15.7126 7.91431 15.4079 8.4302 15.0071L7.51 13.8225ZM5.51376 5.23592C5.84195 4.90773 6.28707 4.72336 6.7512 4.72336V3.22336C5.88924 3.22336 5.06259 3.56577 4.4531 4.17526L5.51376 5.23592ZM5.0012 6.47336C5.0012 6.00923 5.18557 5.56411 5.51376 5.23592L4.4531 4.17526C3.84361 4.78475 3.5012 5.6114 3.5012 6.47336H5.0012ZM5.51376 7.71079C5.18557 7.38261 5.0012 6.93749 5.0012 6.47336H3.5012C3.5012 7.33531 3.84361 8.16196 4.4531 8.77146L5.51376 7.71079ZM6.7512 8.22336C6.28707 8.22336 5.84195 8.03898 5.51376 7.71079L4.4531 8.77146C5.06259 9.38095 5.88924 9.72336 6.7512 9.72336V8.22336ZM7.98863 7.71079C7.66044 8.03898 7.21533 8.22336 6.7512 8.22336V9.72336C7.61315 9.72336 8.4398 9.38095 9.04929 8.77146L7.98863 7.71079ZM8.5012 6.47336C8.5012 6.93749 8.31682 7.38261 7.98863 7.71079L9.04929 8.77146C9.65879 8.16196 10.0012 7.33531 10.0012 6.47336H8.5012ZM7.98863 5.23592C8.31682 5.56411 8.5012 6.00923 8.5012 6.47336H10.0012C10.0012 5.61141 9.65879 4.78475 9.04929 4.17526L7.98863 5.23592ZM6.7512 4.72336C7.21533 4.72336 7.66044 4.90773 7.98863 5.23592L9.04929 4.17526C8.4398 3.56577 7.61315 3.22336 6.7512 3.22336V4.72336Z" fill="#C4CDDF"/>
</svg>
