<svg width="12" height="16" viewBox="0 0 12 16" fill="none" xmlns="http://www.w3.org/2000/svg">
<path d="M5.75104 0.399048C3.61349 0.399048 2.00095 2.01159 2.00095 4.14914C2.00095 6.2867 3.61349 7.89924 5.75104 7.89924C7.88859 7.89924 9.50113 6.2867 9.50113 4.14914C9.50113 2.01159 7.88859 0.399048 5.75104 0.399048ZM5.75104 6.02419C4.64664 6.02419 3.87599 5.25354 3.87599 4.14914C3.87599 3.04474 4.64664 2.27409 5.75104 2.27409C6.85544 2.27409 7.62609 3.04474 7.62609 4.14914C7.62609 5.25354 6.85544 6.02419 5.75104 6.02419Z" fill="#C4CDDF"/>
<path fill-rule="evenodd" clip-rule="evenodd" d="M0.222439 13.5246C1.78623 14.6918 3.70159 15.3997 5.75195 15.3997C7.80232 15.3997 9.71768 14.6918 11.2815 13.5246C11.2815 13.5246 11.3288 12.8642 11.2815 12.4454C11.2304 11.9936 11.0115 11.313 11.0115 11.313C10.6538 10.4616 10.0531 9.73461 9.28429 9.22299C8.51552 8.71137 7.61293 8.43786 6.68948 8.43669H4.81443C3.89098 8.43786 2.98838 8.71137 2.21962 9.22299C1.45085 9.73461 0.850059 10.4616 0.492446 11.313C0.492446 11.313 0.27453 11.8993 0.222386 12.3447C0.171602 12.7784 0.222439 13.5246 0.222439 13.5246ZM3.05506 10.9337C2.55637 11.3349 2.20932 11.8942 2.07116 12.5191C3.16619 13.1538 4.42435 13.5251 5.75188 13.5251C7.07941 13.5251 8.33757 13.1538 9.4326 12.5191C9.29428 11.8942 8.94719 11.3351 8.44853 10.934C7.94987 10.5328 7.32941 10.3135 6.68941 10.3122H4.81436C4.17431 10.3133 3.55376 10.5325 3.05506 10.9337Z" fill="#C4CDDF"/>
</svg>
