<svg width="14" height="16" viewBox="0 0 14 16" fill="none" xmlns="http://www.w3.org/2000/svg">
<path d="M4.51631 7.15453H3.0266V8.64425H4.51631V7.15453ZM7.49573 7.15453H6.00602V8.64425H7.49573V7.15453ZM10.4752 7.15453H8.98544V8.64425H10.4752V7.15453ZM11.9649 1.94055H11.22V0.450836H9.7303V1.94055H3.77146V0.450836H2.28175V1.94055H1.53689C0.710101 1.94055 0.0546287 2.61092 0.0546287 3.43026L0.0471802 13.8582C0.0471802 14.2533 0.204131 14.6322 0.483506 14.9116C0.762881 15.191 1.1418 15.3479 1.53689 15.3479H11.9649C12.7842 15.3479 13.4546 14.6776 13.4546 13.8582V3.43026C13.4546 2.61092 12.7842 1.94055 11.9649 1.94055ZM11.9649 13.8582H1.53689V5.66482H11.9649V13.8582Z" fill="#C4CDDF"/>
</svg>
