<svg width="14" height="14" viewBox="0 0 14 14" fill="none" xmlns="http://www.w3.org/2000/svg">
<path d="M4.22561 11.2997V10.5497H3.47561C2.98496 10.5497 2.51441 10.3547 2.16746 10.0078C1.82052 9.66086 1.62561 9.19031 1.62561 8.69966V3.49966C1.62561 3.00901 1.82052 2.53845 2.16746 2.19151C2.51441 1.84457 2.98496 1.64966 3.47561 1.64966H11.2756C11.7663 1.64966 12.2368 1.84457 12.5838 2.19151C12.9307 2.53845 13.1256 3.00901 13.1256 3.49966V8.69966C13.1256 9.19031 12.9307 9.66086 12.5838 10.0078C12.2368 10.3547 11.7663 10.5497 11.2756 10.5497H8.22191H7.99483L7.80589 10.6756L4.22561 13.0625V11.2997Z" stroke="#E11E3E" stroke-width="1.5"/>
</svg>
