<svg width="68" height="50" viewBox="0 0 68 50" fill="none" xmlns="http://www.w3.org/2000/svg">
<ellipse cx="29.8852" cy="25" rx="25.2551" ry="25" fill="#DFEBFA"/>
<path d="M60.0904 32.27V12.0068C60.0904 11.1048 59.3449 10.3669 58.4338 10.3669H31.9792C31.068 10.3669 30.3225 11.1048 30.3225 12.0068V32.2802H60.0904V32.27Z" fill="#8CA2AF"/>
<path d="M62.9375 10.3669H57.8744C58.7855 10.3669 59.531 11.1048 59.531 12.0068V32.2802H64.5942V12.0068C64.5942 11.0946 63.859 10.3669 62.9375 10.3669Z" fill="#7592A1"/>
<path d="M60.0898 13.5341H34.6188C34.0079 13.5341 33.5213 14.0158 33.5213 14.6206V31.2759H60.0898V13.5341Z" fill="#CBE2FF"/>
<path d="M61.395 31.2657V14.6206C61.395 14.0158 60.898 13.5341 60.2975 13.5341H59.5312V31.2759H61.395V31.2657Z" fill="#BED8FB"/>
<path d="M62.5648 33.1923V31.2654H28.5829C28.0341 31.2654 27.5889 31.7062 27.5889 32.2494C27.5889 34.1968 29.1834 35.7752 31.1507 35.7752H59.9556C61.3948 35.7855 62.5648 34.6273 62.5648 33.1923Z" fill="#9AADCA"/>
<path d="M66.3338 31.2654H62.2646V33.1923C62.2646 34.617 61.0946 35.7752 59.6554 35.7752H63.766C65.7332 35.7752 67.3277 34.1968 67.3277 32.2494C67.3277 31.7062 66.8825 31.2654 66.3338 31.2654Z" fill="#8395B2"/>
<path d="M41.4012 31.2654C41.4012 32.5159 42.4263 33.5203 43.6791 33.5203H51.2272C52.4904 33.5203 53.5051 32.5056 53.5051 31.2654H41.4012Z" fill="#B9CBEA"/>
<path d="M59.0003 26.5321C59.0003 26.844 58.7779 27.1009 58.4813 27.1009L37.5376 27.1192C37.1299 27.1192 36.8148 26.7523 36.8518 26.3119V25.1561C36.8518 25.1561 36.8704 24.8992 36.8889 24.3855C36.963 23.2847 37.2411 18.1108 38.2234 18.6429C39.4096 19.2667 40.6328 19.6519 41.5781 19.4868C42.8013 19.285 43.3203 18.2943 43.9319 17.6154C44.4324 17.065 45.0069 16.9733 45.2293 17.2485C49.2142 21.8169 55.312 19.8538 57.8141 21.8536C59.0559 22.8076 58.9818 25.4129 59.0003 26.5321Z" fill="#E85F6A"/>
<path d="M59.0003 26.5504C59.0003 26.8623 58.7779 27.1192 58.4813 27.1192H52.3835C53.718 24.7891 53.3844 22.2939 52.8469 20.606C54.8857 20.8445 56.702 20.9546 57.8141 21.8352C59.0559 22.826 58.9818 25.4312 59.0003 26.5504Z" fill="white"/>
<path d="M59.0003 26.5504C59.0003 26.8623 58.7779 27.1192 58.4813 27.1192H37.5191C37.1113 27.1192 36.7962 26.7522 36.8333 26.3119V25.156V25.0276H58.9447C59.0003 25.6147 59.0003 26.1651 59.0003 26.5504Z" fill="#B0BEC5"/>
<path d="M37.1484 21.0647C37.3523 19.6336 37.6674 18.3493 38.1864 18.6245C39.3725 19.2483 40.5958 19.6336 41.5411 19.4685C42.6531 19.285 43.1906 18.441 43.7281 17.7622C43.8208 17.8172 43.9134 17.9273 43.9876 18.1108C45.3777 21.083 40.0954 22.4591 37.1484 21.0647Z" fill="white"/>
<path d="M48.7323 19.6702C48.3987 19.9271 48.0466 20.184 47.6944 20.4408C47.3423 20.6793 46.9901 20.9178 46.6194 21.1564H46.6009C46.5823 21.1747 46.5638 21.1747 46.5453 21.1747C46.5267 21.1747 46.5267 21.1747 46.5082 21.1931C46.4711 21.2114 46.4341 21.2114 46.397 21.2297H46.1746C46.1375 21.2297 46.1005 21.2114 46.0449 21.1931C45.9707 21.1747 45.8966 21.138 45.8224 21.1013C45.7854 21.083 45.7483 21.0463 45.7112 21.0279C45.6742 21.0096 45.6556 20.9729 45.6186 20.9545C45.563 20.8995 45.5259 20.8261 45.4888 20.7711C45.3406 20.4225 45.4332 20.1106 45.6556 19.8721L45.6927 19.8354C45.7483 19.7803 45.8224 19.7253 45.878 19.6886C46.0819 19.5602 46.2858 19.4317 46.4711 19.285C46.675 19.1565 46.8604 19.0098 47.0642 18.863C47.1754 18.9364 47.2867 19.0098 47.3979 19.0648C47.6944 19.2483 47.991 19.395 48.306 19.5235C48.4543 19.5602 48.5841 19.6152 48.7323 19.6702Z" fill="white"/>
<path opacity="0.2" d="M48.3246 19.5051C47.7315 19.9638 47.1013 20.4041 46.4156 20.8444C46.3785 20.8628 46.3414 20.8811 46.2858 20.8811C46.119 20.8811 45.9151 20.7527 45.841 20.6059C45.6927 20.2757 45.9707 20.0555 46.1005 19.9638C46.5453 19.6886 46.9901 19.3767 47.4164 19.0464C47.3052 18.9914 47.194 18.918 47.0828 18.8446C46.8975 18.9914 46.6936 19.1198 46.4897 19.2666C46.2858 19.395 46.0819 19.5418 45.8966 19.6702C45.8225 19.7069 45.7669 19.762 45.7113 19.817C45.6927 19.8353 45.6742 19.8353 45.6742 19.8537C45.4518 20.0922 45.3591 20.4224 45.5074 20.7527C45.5444 20.8261 45.5815 20.8811 45.6371 20.9362C45.6557 20.9729 45.6927 20.9912 45.7298 21.0096C45.7669 21.0279 45.8039 21.0646 45.841 21.0829C45.9151 21.1196 45.9893 21.1563 46.0634 21.1747C46.1005 21.193 46.1375 21.193 46.1932 21.2114H46.4156C46.4526 21.2114 46.4897 21.193 46.5268 21.1747C46.5453 21.1747 46.5453 21.1747 46.5638 21.1563C46.5824 21.1563 46.6009 21.138 46.6194 21.138H46.638C47.0087 20.8995 47.3608 20.661 47.713 20.4224C48.0651 20.1656 48.3987 19.9271 48.7509 19.6519C48.5841 19.6152 48.4543 19.5601 48.3246 19.5051Z" fill="#424242"/>
<path d="M49.622 19.9822C49.4366 20.2207 49.2328 20.4592 49.0289 20.6794C48.7323 21.0096 48.6211 21.4683 48.9547 21.8352L49.0103 21.8903C49.0474 21.927 49.103 21.9637 49.1586 22.0004C49.1772 22.0187 49.1957 22.0187 49.2142 22.037C49.2328 22.0554 49.2513 22.0554 49.2884 22.0554H49.3069C49.344 22.0737 49.381 22.0737 49.4181 22.0921H49.4366C49.4737 22.0921 49.5108 22.1104 49.5478 22.1104H49.7517C49.7888 22.1104 49.8259 22.0921 49.8444 22.0921C49.8815 22.0921 49.9 22.0737 49.9371 22.0554C49.9927 22.0187 50.0483 21.982 50.1039 21.927C50.5487 21.4316 50.975 20.9179 51.3827 20.3858C51.253 20.3675 51.1047 20.3308 50.975 20.3124C50.6414 20.2574 50.3077 20.184 49.9927 20.0923C49.8815 20.0556 49.7517 20.0189 49.622 19.9822Z" fill="white"/>
<path opacity="0.2" d="M50.9935 20.3124C50.6414 20.7711 50.2521 21.2298 49.8444 21.6885C49.7888 21.7619 49.6776 21.7619 49.622 21.7619C49.4737 21.7619 49.3069 21.6885 49.2328 21.6151C48.9918 21.3399 49.2142 21.0463 49.3069 20.9362C49.5478 20.661 49.7888 20.3858 50.0112 20.1106L49.622 20.0005C49.4366 20.2391 49.2328 20.4776 49.0289 20.6977C48.7323 21.028 48.6211 21.4867 48.9547 21.8719L49.0103 21.927C49.0474 21.9637 49.103 22.0004 49.1586 22.0371C49.1772 22.0554 49.1957 22.0554 49.2142 22.0738C49.2328 22.0738 49.2513 22.0921 49.2884 22.0921C49.2884 22.0921 49.3069 22.0921 49.3069 22.1105C49.344 22.1288 49.381 22.1288 49.4181 22.1472H49.4366C49.4737 22.1472 49.5108 22.1655 49.5478 22.1655H49.7517C49.7888 22.1655 49.8259 22.1472 49.8444 22.1472C49.8815 22.1288 49.9 22.1288 49.9371 22.1105C49.9927 22.0738 50.0483 22.0371 50.1039 21.982C50.5487 21.4867 50.975 20.9729 51.3827 20.4409C51.2715 20.3675 51.1418 20.3308 50.9935 20.3124Z" fill="#424242"/>
<g opacity="0.2">
<path opacity="0.2" d="M44.8586 17.6337C47.4164 20.5326 50.7896 20.9178 53.5141 21.2114C55.1822 21.3949 56.6279 21.56 57.499 22.2388C58.4443 22.9911 58.4628 25.1927 58.4628 26.2385V26.532L37.5376 26.5687C37.5005 26.5687 37.482 26.5504 37.4635 26.532C37.4449 26.5137 37.4079 26.4587 37.4079 26.3669V25.1744C37.4079 25.1377 37.4264 24.8808 37.4449 24.4221C37.4449 24.3487 37.4635 24.257 37.4635 24.1286C37.6859 20.6977 38.001 19.5785 38.1678 19.2116C39.2798 19.7803 40.2807 20.0555 41.1147 20.0555C41.3001 20.0555 41.4854 20.0372 41.6708 20.0188C42.8569 19.817 43.4871 19.0281 43.9875 18.386C44.0987 18.2392 44.2099 18.0924 44.3397 17.964C44.5621 17.7255 44.766 17.6521 44.8586 17.6337ZM44.8772 17.0833C44.5992 17.0833 44.2655 17.2484 43.9319 17.597C43.3203 18.2942 42.8013 19.2666 41.5781 19.4684C41.4298 19.4868 41.2815 19.5051 41.1147 19.5051C40.2436 19.5051 39.2242 19.1565 38.2234 18.6245C38.1863 18.6061 38.1307 18.6061 38.0936 18.6061C37.204 18.6061 36.963 23.3397 36.8889 24.3854C36.8518 24.9175 36.8518 25.156 36.8518 25.156V26.3119C36.8148 26.7339 37.1299 27.1192 37.5376 27.1192L58.4999 27.1008C58.7964 27.1008 59.0188 26.8439 59.0188 26.532C59.0003 25.4129 59.0744 22.8076 57.8326 21.8169C55.3305 19.817 49.2327 21.7985 45.2479 17.2117C45.1552 17.1384 45.0255 17.0833 44.8772 17.0833Z" fill="#424242"/>
</g>
<path d="M30.429 2.40302H25.1484C22.8912 2.40302 21.0585 4.21717 21.0585 6.45155V10.3566L24.4961 16.7318L30.8742 17.5312V3.54071L30.429 2.40302Z" fill="#F9CC5D"/>
<path d="M33.712 4.76039H33.6499C33.3186 4.76039 33.0494 4.49391 33.0494 4.16592C33.0494 3.19222 32.2521 2.40302 31.2685 2.40302H30.4194V17.4492L32.9872 16.332L35.4722 10.3566V6.51305C35.4826 5.53935 34.6853 4.76039 33.712 4.76039Z" fill="#EFBF49"/>
<path d="M39.5503 28.9184C39.5503 27.0017 38.2975 25.3106 36.4544 24.7366L31.4648 22.2972L29.5596 21.5592L28.2757 21.5182L22.3222 21.7232L16.8759 23.4349C15.0226 24.0089 13.7697 25.7103 13.7697 27.6167V42.4279C13.7697 43.3196 14.4945 44.0371 15.3953 44.0371H39.5503V28.9184Z" fill="#DDB7A0"/>
<path d="M39.6754 23.435L34.2292 21.7233L29.166 21.5491L27.0641 21.1391L35.8211 25.0544C37.6641 25.6284 38.917 27.3298 38.917 29.2362V44.0697H41.1457C42.0465 44.0697 42.7712 43.3522 42.7712 42.4605V27.6168C42.7712 25.7104 41.5184 24.0089 39.6754 23.435Z" fill="#C4845C"/>
<path d="M31.6099 21.4054V17.2339H24.9316V21.4054L28.2656 21.5182L31.6099 21.4054Z" fill="#FFCBBE"/>
<path d="M32.4584 16.0656C31.2469 16.0656 25.4383 16.3321 24.9517 15.9733H24.9931C24.144 15.6966 22.2907 10.3566 22.2907 10.3566H21.0585V12.3553C21.0585 12.8677 21.4727 13.2777 21.9904 13.2777C22.1561 13.2777 22.2907 13.4007 22.301 13.5647C22.4667 16.2193 24.4029 18.4025 26.95 18.9662C29.2175 18.095 32.4584 16.0656 32.4584 16.0656Z" fill="#FFCBBE"/>
<path d="M34.2604 10.3566C34.2604 10.3566 33.1318 15.9323 31.8479 16.1066C31.527 16.1476 29.2905 16.2603 29.0006 16.3321C29.0006 16.3321 28.7003 18.0335 26.3603 18.8124C26.9608 19.0174 27.6028 19.1199 28.2758 19.1199C31.4545 19.1199 34.0534 16.6703 34.2501 13.575C34.2604 13.411 34.395 13.288 34.5607 13.288C35.0784 13.288 35.4926 12.878 35.4926 12.3655V10.3566H34.2604Z" fill="#FFCBBE"/>
<path d="M28.2651 23.9473L26.4842 25.4643C26.0493 25.8435 25.3763 25.7717 25.0243 25.3105L22.3011 21.7129L23.2848 20.8622C23.7611 20.4523 24.4859 20.4625 24.9518 20.893L28.2651 23.9473Z" fill="#DDB7A0"/>
<path d="M28.3998 19.2428L28.1927 21.2824C28.2135 21.8564 29.0107 22.2971 29.5905 22.2356L34.1049 21.7642L34.0635 20.4727C34.0428 19.8373 33.5458 19.3248 32.9142 19.2838L28.3998 19.2428Z" fill="#C4845C"/>
<path d="M23.8956 19.2737C23.264 19.3249 22.7567 19.8374 22.7463 20.4626L22.7049 21.754L27.2193 22.2255C27.7991 22.287 28.4307 21.8463 28.4514 21.2723L28.41 19.2327L23.8956 19.2737Z" fill="#DDB7A0"/>
<path d="M35.7545 34.6693C35.7545 34.3528 36.0111 34.0962 36.3276 34.0962C36.6441 34.0962 36.9008 34.3528 36.9008 34.6693V44.037H35.7545V34.6693Z" fill="#C4845C"/>
<path d="M18.6497 34.702C18.6497 34.3855 18.9063 34.1288 19.2229 34.1288C19.5394 34.1288 19.796 34.3855 19.796 34.702V44.0697H18.6497V34.702Z" fill="#C4845C"/>
<path d="M58.8063 17.3774C59.441 17.3774 59.9556 16.8681 59.9556 16.2397C59.9556 15.6114 59.441 15.1021 58.8063 15.1021C58.1715 15.1021 57.657 15.6114 57.657 16.2397C57.657 16.8681 58.1715 17.3774 58.8063 17.3774Z" fill="#DD636E"/>
<path d="M49.3738 8.19385H48.0588V10.3565H49.3738V8.19385Z" fill="#7592A1"/>
<path d="M51.6413 6.88235C51.6413 8.48127 50.3263 9.78295 48.7111 9.78295C47.0958 9.78295 45.7809 8.48127 45.7809 6.88235C45.7809 5.28343 47.0958 3.98175 48.7111 3.98175C50.3367 3.98175 51.6413 5.27318 51.6413 6.88235Z" fill="#2B4D66"/>
<path d="M50.078 6.8818C50.078 7.63001 49.4671 8.23473 48.7112 8.23473C47.9554 8.23473 47.3445 7.63001 47.3445 6.8818C47.3445 6.13359 47.9554 5.52887 48.7112 5.52887C49.4671 5.52887 50.078 6.13359 50.078 6.8818Z" fill="#365E7D"/>
<path d="M49.3634 6.88192C49.3634 7.24065 49.0735 7.52764 48.7111 7.52764C48.3487 7.52764 48.0588 7.24065 48.0588 6.88192C48.0588 6.52319 48.3487 6.23621 48.7111 6.23621C49.0735 6.23621 49.3634 6.52319 49.3634 6.88192Z" fill="#0D3044"/>
<g opacity="0.5">
<g opacity="0.5">
<path opacity="0.5" d="M49.4463 6.39004C49.4463 6.52328 49.3427 6.62577 49.2081 6.62577C49.0735 6.62577 48.97 6.52328 48.97 6.39004C48.97 6.25679 49.0735 6.1543 49.2081 6.1543C49.3427 6.1543 49.4463 6.25679 49.4463 6.39004Z" fill="white"/>
</g>
</g>
<g opacity="0.1">
<g opacity="0.1">
<path opacity="0.1" d="M51.6411 6.88217C51.6411 5.28325 50.3262 3.98157 48.7109 3.98157V9.78277C50.3365 9.78277 51.6411 8.48108 51.6411 6.88217Z" fill="#2A5877"/>
</g>
</g>
</svg>
